<?xml version="1.0" standalone="no"?>
<!DOCTYPE svg PUBLIC "-//W3C//DTD SVG 20010904//EN"
 "http://www.w3.org/TR/2001/REC-SVG-20010904/DTD/svg10.dtd">
<svg version="1.0" xmlns="http://www.w3.org/2000/svg"
 width="2439.000000pt" height="938.000000pt" viewBox="0 0 2439.000000 938.000000"
 preserveAspectRatio="xMidYMid meet">

<g transform="translate(0.000000,938.000000) scale(0.100000,-0.100000)"
fill="#000000" stroke="none">
<path d="M2765 9370 c-676 -27 -1550 -125 -2498 -281 l-257 -42 0 -2777 c0
-2744 0 -2778 20 -2855 80 -311 431 -625 966 -863 155 -69 169 -72 88 -14
-162 115 -267 287 -328 535 -53 216 -51 111 -51 2922 l0 2620 100 33 c304 100
775 224 1105 291 370 75 645 112 970 132 491 29 1130 -54 1904 -247 183 -46
577 -158 676 -192 l55 -19 3 -2554 c2 -1842 0 -2576 -8 -2633 -28 -197 -141
-392 -304 -524 -106 -87 -474 -292 -733 -411 -434 -198 -797 -266 -957 -179
-67 37 -76 69 -66 219 7 107 13 137 40 201 42 102 128 230 245 362 107 123
112 133 144 326 45 263 69 615 78 1095 9 545 8 558 -161 1561 -80 473 -161
933 -182 1024 -20 91 -74 297 -120 459 -47 162 -103 371 -125 465 -61 255 -85
340 -133 459 -81 199 -201 387 -246 387 -34 0 -109 -160 -204 -438 -117 -343
-205 -1027 -251 -1967 -20 -410 -58 -1046 -101 -1715 -33 -516 -35 -600 -14
-600 30 0 49 120 145 905 272 2220 349 2800 415 3111 12 54 24 111 27 127 3
15 8 27 12 27 4 0 33 -177 65 -392 83 -555 91 -599 147 -828 71 -291 84 -358
118 -616 77 -586 107 -906 126 -1348 14 -334 51 -1084 79 -1601 l13 -240 -29
-80 c-16 -44 -54 -131 -84 -193 -57 -117 -95 -164 -211 -259 -74 -61 -93 -108
-103 -250 -8 -110 2 -362 16 -418 6 -25 8 -25 113 -25 262 0 690 64 1051 156
177 46 511 158 680 229 300 126 725 363 882 492 132 107 250 283 295 438 17
57 18 221 21 2860 l2 2801 -292 47 c-1314 212 -2391 307 -3143 277z"/>
<path d="M10481 9030 c-74 -18 -131 -87 -131 -157 0 -55 20 -94 66 -130 52
-39 151 -44 208 -11 51 30 76 65 83 116 7 53 -1 83 -33 122 -45 53 -122 77
-193 60z"/>
<path d="M16037 9028 c-52 -14 -103 -64 -116 -116 -29 -107 53 -202 176 -202
129 0 213 113 165 223 -35 79 -133 121 -225 95z"/>
<path d="M22550 8744 l0 -296 -22 7 c-13 4 -86 9 -163 12 -111 4 -153 1 -204
-12 -174 -45 -303 -154 -388 -326 -47 -96 -73 -213 -80 -360 -10 -215 28 -387
115 -521 86 -131 198 -208 361 -249 76 -19 104 -21 260 -16 189 5 286 23 395
71 l56 25 -2 978 -3 978 -162 3 -163 2 0 -296z m-22 -470 l22 -6 0 -524 0
-524 -27 -12 c-48 -20 -194 -22 -259 -3 -78 22 -161 104 -193 190 -42 111 -54
205 -48 380 5 163 15 218 56 309 44 102 131 174 233 196 43 9 174 6 216 -6z"/>
<path d="M7272 8178 l3 -853 23 -58 c33 -81 116 -167 203 -211 111 -56 197
-71 399 -71 227 0 408 29 542 87 l48 20 0 969 0 969 -175 0 -175 0 0 -891 0
-890 -32 -13 c-18 -8 -68 -20 -111 -26 -185 -30 -329 28 -365 146 -9 31 -12
241 -12 858 l0 816 -175 0 -175 0 2 -852z"/>
<path d="M17430 8739 l0 -291 -32 6 c-18 3 -83 9 -144 12 -87 5 -128 3 -190
-11 -323 -71 -508 -369 -491 -790 10 -238 67 -388 196 -515 136 -135 252 -175
506 -174 180 0 279 16 407 66 l78 29 0 980 0 979 -165 0 -165 0 0 -291z m-12
-472 c9 -6 12 -124 12 -532 l0 -523 -37 -13 c-21 -8 -78 -13 -128 -14 -76 0
-99 4 -146 26 -100 47 -156 124 -196 269 -26 94 -25 407 0 499 41 145 108 233
213 277 52 22 71 24 164 22 58 -2 111 -7 118 -11z"/>
<path d="M20320 8739 l0 -291 -32 6 c-18 3 -83 9 -144 12 -200 12 -350 -41
-474 -166 -152 -153 -218 -355 -207 -635 10 -237 67 -388 196 -515 85 -84 163
-128 277 -157 96 -24 356 -24 473 1 86 18 204 58 228 77 11 9 13 188 13 985
l0 974 -165 0 -165 0 0 -291z m-12 -472 c9 -6 12 -124 12 -532 l0 -523 -37
-13 c-21 -7 -78 -13 -128 -13 -77 -1 -98 3 -146 25 -100 47 -156 124 -196 269
-26 94 -25 407 0 499 41 145 108 233 213 277 52 22 71 24 164 22 58 -2 111 -7
118 -11z"/>
<path d="M23663 8476 c-225 -43 -384 -199 -453 -447 -42 -152 -44 -404 -4
-567 52 -215 206 -388 404 -452 70 -23 89 -25 270 -24 166 0 206 4 272 22 88
24 178 61 178 72 0 10 -69 193 -75 198 -2 2 -29 -6 -61 -18 -135 -50 -336 -66
-441 -35 -138 41 -232 165 -259 342 -6 38 -4 42 17 47 13 3 200 30 414 61 215
31 405 58 423 62 l32 5 0 83 c0 289 -119 523 -310 608 -111 49 -279 67 -407
43z m218 -208 c111 -33 189 -176 189 -343 0 -30 -1 -55 -3 -55 -1 0 -135 -20
-296 -45 -161 -25 -296 -45 -299 -45 -3 0 -2 44 1 98 16 257 126 402 306 402
35 0 81 -5 102 -12z"/>
<path d="M9210 8473 c-82 -9 -236 -46 -296 -69 l-64 -26 0 -689 0 -689 165 0
165 0 2 617 3 618 40 14 c22 8 88 16 147 19 126 5 187 -11 236 -61 62 -64 62
-64 62 -663 l0 -544 165 0 166 0 -3 579 -3 578 -40 79 c-90 176 -252 246 -563
242 -81 0 -163 -3 -182 -5z"/>
<path d="M12830 8465 c-173 -42 -310 -160 -386 -330 -52 -118 -68 -214 -68
-400 0 -241 29 -357 126 -501 78 -117 201 -202 343 -239 178 -46 490 -18 639
57 22 11 42 21 43 22 1 1 -15 47 -36 102 -25 66 -42 98 -52 97 -8 -1 -46 -14
-85 -27 -39 -14 -115 -31 -168 -37 -223 -28 -373 39 -448 198 -27 57 -58 186
-47 197 2 2 193 32 424 65 231 34 430 63 443 66 19 5 22 12 22 58 0 88 -21
228 -46 307 -61 194 -193 322 -376 365 -78 18 -253 18 -328 0z m275 -213 c54
-28 89 -66 120 -134 29 -63 56 -232 40 -246 -9 -8 -548 -92 -588 -92 -16 0
-17 7 -11 78 18 226 89 358 216 404 68 24 166 20 223 -10z"/>
<path d="M14228 8470 c-97 -12 -204 -35 -278 -62 l-65 -23 -3 -693 -2 -692
165 0 165 0 0 615 0 614 23 13 c25 14 203 18 253 5 l31 -8 28 108 c15 59 30
114 32 121 4 9 -27 12 -138 11 -79 -1 -174 -5 -211 -9z"/>
<path d="M15061 8464 c-120 -32 -227 -121 -279 -231 -24 -52 -27 -69 -27 -168
0 -104 2 -114 33 -177 55 -112 115 -158 349 -263 67 -30 125 -83 142 -128 18
-46 13 -133 -9 -176 -44 -87 -110 -116 -247 -109 -83 5 -103 10 -163 40 l-67
35 -43 -105 c-48 -117 -51 -107 39 -148 89 -41 175 -57 311 -58 179 0 290 37
391 131 102 95 144 200 137 339 -6 112 -44 190 -134 272 -59 55 -98 78 -259
153 -57 26 -130 89 -151 130 -8 16 -14 51 -14 80 0 76 34 130 105 165 50 24
63 26 128 21 54 -5 88 -14 139 -40 l67 -34 39 91 c22 50 37 95 34 100 -9 16
-127 64 -199 80 -89 20 -248 20 -322 0z"/>
<path d="M18460 8473 c-140 -22 -330 -83 -330 -107 0 -7 12 -41 26 -77 15 -35
30 -74 35 -86 l8 -22 68 29 c161 68 359 79 466 26 86 -42 117 -99 117 -215 l0
-67 -127 -18 c-381 -54 -578 -161 -654 -353 -33 -84 -33 -262 -1 -345 65 -162
234 -251 507 -265 192 -9 403 21 534 78 l51 21 0 503 c0 469 -1 507 -20 580
-44 171 -152 271 -337 310 -62 13 -278 19 -343 8z m390 -982 l0 -299 -35 -12
c-104 -34 -256 -30 -334 9 -156 80 -175 342 -35 471 52 47 105 72 212 99 92
23 117 28 160 30 l32 1 0 -299z"/>
<path d="M10367 8453 c-4 -3 -7 -332 -7 -730 l0 -723 165 0 165 0 0 730 0 730
-158 0 c-87 0 -162 -3 -165 -7z"/>
<path d="M10940 8453 c0 -4 86 -271 191 -593 105 -322 211 -647 235 -722 l45
-138 159 0 159 0 31 98 c17 53 121 376 231 718 109 342 199 626 199 633 0 8
-41 11 -152 9 l-153 -3 -123 -440 c-68 -242 -136 -498 -151 -570 l-28 -130 -7
60 c-5 33 -66 271 -136 530 -70 258 -133 489 -139 513 l-12 42 -174 0 c-96 0
-175 -3 -175 -7z"/>
<path d="M15930 7730 l0 -730 165 0 165 0 0 730 0 730 -165 0 -165 0 0 -730z"/>
<path d="M7270 4710 l0 -1600 260 0 260 0 0 1600 0 1600 -260 0 -260 0 0
-1600z"/>
<path d="M19710 5839 l0 -461 -22 6 c-126 35 -357 45 -505 21 -392 -64 -680
-357 -779 -795 -66 -291 -48 -656 45 -908 109 -298 334 -507 632 -587 289 -77
731 -49 1028 65 42 16 86 37 99 45 l22 16 0 1530 0 1529 -260 0 -260 0 0 -461z
m-48 -730 l48 -11 0 -823 0 -823 -42 -17 c-72 -29 -204 -41 -304 -27 -324 43
-483 322 -484 847 0 256 34 439 111 586 106 203 282 297 533 283 49 -3 111
-10 138 -15z"/>
<path d="M13642 4703 c-287 -868 -522 -1581 -522 -1586 0 -4 118 -6 261 -5
l262 3 121 390 c67 215 125 398 129 408 6 16 40 17 515 17 l509 0 108 -362
c60 -200 115 -384 122 -410 l15 -48 299 0 c233 0 299 3 299 13 0 6 -233 719
-518 1582 l-518 1570 -280 3 -280 2 -522 -1577z m788 1031 c0 -63 55 -271 216
-824 96 -327 177 -605 180 -617 l6 -23 -421 0 c-232 0 -421 2 -421 4 0 2 78
259 174 572 95 313 191 647 212 741 36 161 54 209 54 147z"/>
<path d="M9090 5434 c-121 -21 -155 -30 -221 -55 -309 -119 -511 -414 -574
-839 -21 -139 -21 -432 0 -571 64 -434 271 -727 595 -843 146 -53 327 -68 501
-41 424 64 704 397 769 917 19 148 8 506 -19 629 -53 244 -135 410 -275 558
-159 166 -341 240 -606 246 -80 2 -156 2 -170 -1z m267 -346 c144 -53 242
-228 284 -503 21 -136 18 -552 -4 -675 -34 -187 -80 -293 -164 -382 -72 -75
-136 -101 -248 -101 -106 0 -174 26 -242 94 -126 125 -181 318 -190 670 -14
503 90 817 297 897 76 29 190 29 267 0z"/>
<path d="M11115 5425 c-372 -69 -607 -401 -541 -765 40 -221 200 -393 469
-505 155 -64 225 -102 277 -151 68 -64 94 -127 94 -234 1 -110 -25 -170 -101
-240 -93 -85 -228 -110 -409 -75 -77 15 -211 71 -247 102 -9 9 -19 14 -20 12
-2 -2 -33 -77 -69 -166 -49 -118 -63 -164 -55 -171 71 -53 231 -113 366 -136
125 -21 366 -21 468 0 176 36 280 91 403 214 143 142 194 265 194 465 0 105
-3 130 -28 200 -48 139 -137 251 -271 341 -74 50 -105 67 -275 147 -220 103
-303 199 -303 347 0 114 71 225 170 267 130 54 331 27 465 -63 28 -19 52 -33
53 -32 2 2 30 68 63 148 47 112 58 148 49 157 -24 24 -156 83 -239 107 -161
46 -364 59 -513 31z"/>
<path d="M16750 5433 c-194 -15 -428 -65 -577 -123 l-83 -31 0 -1085 0 -1084
260 0 260 0 2 973 3 972 80 24 c70 21 100 25 245 25 139 1 173 -2 215 -18 99
-37 157 -94 198 -195 l22 -56 3 -862 3 -863 254 0 255 0 0 873 c0 837 -1 877
-20 951 -29 113 -73 190 -160 276 -121 121 -287 191 -520 220 -78 9 -335 11
-440 3z"/>
<path d="M21466 5424 c-308 -56 -548 -255 -671 -556 -147 -360 -139 -911 18
-1242 56 -118 93 -173 176 -260 206 -215 478 -308 852 -292 239 10 462 57 602
127 31 16 57 35 56 42 -1 27 -116 312 -125 310 -5 -2 -47 -18 -94 -37 -134
-55 -269 -79 -445 -80 -97 -1 -170 4 -205 13 -189 47 -324 173 -394 369 -29
81 -59 233 -48 244 4 3 306 50 672 103 366 52 678 98 694 101 l29 6 -6 167
c-13 351 -100 594 -277 771 -112 112 -287 195 -463 219 -106 15 -275 12 -371
-5z m322 -322 c186 -59 283 -227 307 -534 5 -69 4 -89 -7 -93 -7 -2 -206 -34
-443 -70 -236 -35 -445 -67 -462 -70 l-33 -6 0 63 c0 170 38 355 96 470 38 75
115 164 171 200 94 57 257 75 371 40z"/>
<path d="M23525 5425 c-149 -28 -252 -82 -361 -190 -64 -63 -90 -98 -123 -165
-126 -257 -73 -560 130 -743 76 -69 174 -126 321 -188 260 -108 333 -191 332
-374 -1 -109 -15 -146 -85 -220 -67 -71 -128 -97 -245 -103 -146 -7 -313 36
-414 108 -17 12 -31 16 -35 11 -3 -6 -34 -80 -69 -165 -47 -114 -61 -158 -53
-165 27 -21 157 -80 222 -100 117 -36 229 -51 385 -51 284 0 451 58 616 213
131 123 200 265 211 436 10 152 -28 289 -112 407 -93 130 -186 195 -476 333
-148 70 -223 132 -266 218 -69 142 1 330 144 390 130 54 331 27 465 -63 28
-19 52 -33 53 -32 2 2 30 68 64 147 43 103 58 148 50 157 -18 22 -153 83 -240
108 -162 47 -366 59 -514 31z"/>
<path d="M17131 1495 c-153 -43 -263 -147 -342 -321 -88 -194 -104 -523 -37
-744 45 -147 139 -287 236 -349 144 -92 370 -106 529 -31 l63 29 -32 88 c-17
48 -33 89 -34 91 -1 2 -22 -7 -46 -19 -62 -33 -204 -34 -264 -2 -83 45 -148
142 -186 281 -31 112 -31 382 0 493 70 258 223 357 435 285 46 -15 70 -19 72
-12 3 6 15 41 29 79 l25 67 -24 16 c-13 8 -48 25 -77 36 -71 28 -268 35 -347
13z"/>
<path d="M18780 765 l0 -735 120 0 120 0 0 735 0 735 -120 0 -120 0 0 -735z"/>
<path d="M22010 789 l0 -710 45 -20 c103 -46 314 -64 437 -38 176 37 309 174
354 365 19 84 22 266 5 349 -18 84 -73 195 -124 247 -68 70 -142 101 -252 106
-63 3 -110 -1 -154 -12 -34 -9 -65 -16 -67 -16 -2 0 -4 99 -4 220 l0 220 -120
0 -120 0 0 -711z m475 142 c50 -23 68 -43 99 -111 46 -100 58 -263 32 -411
-31 -171 -109 -251 -246 -253 -36 -1 -77 2 -92 7 l-28 7 0 379 0 379 28 10
c47 18 163 14 207 -7z"/>
<path d="M23144 1480 c-46 -23 -64 -53 -64 -108 0 -46 19 -74 64 -96 81 -38
177 2 192 81 19 99 -95 172 -192 123z"/>
<path d="M18000 1084 c-178 -48 -285 -199 -310 -436 -18 -179 16 -355 92 -468
82 -124 197 -176 369 -168 85 4 107 9 163 37 107 53 183 155 223 303 24 88 24
318 -1 408 -21 77 -66 164 -111 218 -86 100 -273 147 -425 106z m209 -161 c38
-28 69 -78 89 -142 13 -44 17 -93 17 -231 -1 -160 -3 -180 -24 -235 -49 -122
-137 -170 -234 -127 -95 42 -132 146 -132 367 0 167 17 251 61 318 48 73 158
97 223 50z"/>
<path d="M19560 1084 c-200 -54 -310 -241 -310 -528 0 -141 18 -234 58 -316
84 -167 207 -237 402 -228 148 7 245 61 320 179 108 167 120 478 26 676 -89
188 -285 273 -496 217z m183 -148 c44 -18 80 -63 108 -133 21 -53 23 -74 24
-243 0 -167 -2 -191 -22 -245 -45 -119 -139 -170 -236 -127 -94 42 -131 148
-131 372 1 160 14 229 59 306 42 72 124 101 198 70z"/>
<path d="M20568 1090 c-78 -12 -176 -39 -210 -56 l-28 -15 0 -494 0 -495 120
0 120 0 0 441 0 440 38 16 c50 22 186 22 227 1 45 -24 76 -61 86 -105 5 -21 9
-208 9 -415 l0 -378 115 0 115 0 0 418 0 419 23 20 c43 40 89 57 158 57 77 0
123 -22 154 -74 19 -33 20 -54 23 -437 l3 -403 119 0 120 0 0 368 c0 381 -6
465 -36 528 -38 80 -127 141 -239 164 -122 25 -305 -10 -390 -74 l-35 -27 -51
36 c-28 19 -74 42 -102 51 -62 19 -257 27 -339 14z"/>
<path d="M23805 1086 c-73 -14 -183 -50 -197 -64 -4 -4 4 -37 18 -73 l26 -66
64 24 c95 34 190 47 261 34 96 -18 140 -66 150 -165 7 -63 22 -55 -142 -80
-199 -30 -327 -92 -392 -189 -44 -65 -56 -117 -51 -208 6 -97 43 -168 112
-216 72 -49 134 -65 286 -70 149 -6 275 11 363 49 l48 21 -3 381 c-3 322 -6
388 -20 424 -36 96 -96 153 -194 187 -66 23 -238 29 -329 11z m325 -700 l0
-214 -32 -13 c-20 -8 -68 -14 -118 -14 -99 0 -158 24 -190 78 -46 75 -34 201
26 267 49 54 186 106 287 109 l27 1 0 -214z"/>
<path d="M23090 555 l0 -525 120 0 120 0 0 525 0 525 -120 0 -120 0 0 -525z"/>
</g>
</svg>
